<?xml version="1.0" encoding="utf-8"?>
<!-- Generator: Adobe Illustrator 15.0.0, SVG Export Plug-In . SVG Version: 6.00 Build 0)  -->
<!DOCTYPE svg PUBLIC "-//W3C//DTD SVG 1.1//EN" "http://www.w3.org/Graphics/SVG/1.1/DTD/svg11.dtd">
<svg version="1.1" id="Capa_1" xmlns="http://www.w3.org/2000/svg" xmlns:xlink="http://www.w3.org/1999/xlink" x="0px" y="0px"
	 width="221.966px" height="47.916px" viewBox="0 0 221.966 47.916" enable-background="new 0 0 221.966 47.916"
	 xml:space="preserve">
<g>
	<defs>
		<rect id="SVGID_1_" width="221.966" height="47.916"/>
	</defs>
	<clipPath id="SVGID_2_">
		<use xlink:href="#SVGID_1_"  overflow="visible"/>
	</clipPath>
	<path clip-path="url(#SVGID_2_)" fill="#005DA4" d="M16.276,7.899c-3.071,0-5.559,1.276-7.464,3.829
		c-1.907,2.551-2.86,6.707-2.86,12.471c0,6.252,0.977,10.576,2.932,12.969c1.952,2.396,4.369,3.591,7.251,3.591
		c2.015,0,3.787-0.543,5.315-1.631c1.528-1.085,2.744-2.809,3.65-5.172c0.905-2.361,1.357-5.465,1.357-9.306
		c0-4.191-0.424-7.464-1.274-9.817c-0.851-2.353-2.064-4.099-3.639-5.234C19.97,8.466,18.213,7.899,16.276,7.899 M15.898,6.081
		c2.946,0,5.704,0.776,8.28,2.328c2.577,1.551,4.592,3.717,6.048,6.495c1.456,2.78,2.186,5.912,2.186,9.393
		c0,3.478-0.733,6.62-2.198,9.422c-1.466,2.806-3.478,4.989-6.036,6.556c-2.56,1.568-5.272,2.353-8.138,2.353
		c-2.803,0-5.433-0.768-7.89-2.306c-2.456-1.535-4.429-3.73-5.917-6.59C0.744,30.873,0,27.704,0,24.225
		c0-3.433,0.721-6.533,2.161-9.296c1.441-2.765,3.414-4.931,5.919-6.497C10.586,6.864,13.19,6.081,15.898,6.081"/>
	<path clip-path="url(#SVGID_2_)" fill="#005DA4" d="M34.415,19.616h10.892v1.607c-1.45,0.032-2.375,0.161-2.777,0.391
		c-0.403,0.227-0.601,0.553-0.601,0.979c0,0.349,0.079,0.693,0.236,1.039l5.87,13.065l5.339-12.667
		c0.078-0.219,0.118-0.44,0.118-0.66c0-1.148-1.13-1.865-3.389-2.147v-1.607h9.165v1.607c-0.93,0.093-1.67,0.347-2.221,0.756
		c-0.554,0.409-0.977,0.963-1.277,1.654l-8.108,18.781h-1.277l-8.709-19.301c-0.316-0.693-0.698-1.177-1.147-1.452
		c-0.45-0.277-1.153-0.422-2.114-0.438V19.616z"/>
	<path clip-path="url(#SVGID_2_)" fill="#005DA4" d="M65.071,29.16h9.593c0.568,0,1.006-0.192,1.321-0.577
		c0.315-0.387,0.473-1.045,0.473-1.974c0-1.732-0.539-3.206-1.618-4.417c-1.079-1.212-2.35-1.819-3.814-1.819
		c-1.64,0-3.03,0.731-4.169,2.196C65.713,24.036,65.119,26.23,65.071,29.16 M80.924,30.839H65.071
		c0.078,3.369,0.708,5.747,1.89,7.133c1.355,1.56,3.079,2.34,5.174,2.34c3.086,0,5.566-1.757,7.442-5.269l1.535,0.661
		c-2.298,4.474-5.623,6.711-9.967,6.711c-2.963,0-5.454-1.073-7.481-3.217c-2.022-2.14-3.033-4.88-3.033-8.218
		c0-3.591,0.995-6.492,2.988-8.706c1.992-2.213,4.446-3.32,7.36-3.32c2.139,0,3.99,0.553,5.55,1.653
		c1.56,1.103,2.733,2.687,3.519,4.75C80.6,26.806,80.89,28.632,80.924,30.839"/>
	<path clip-path="url(#SVGID_2_)" fill="#005DA4" d="M82.786,19.616l7.96-0.401v8.954c0.85-2.945,1.875-5.175,3.07-6.686
		c1.198-1.513,2.679-2.268,4.442-2.268c1.198,0,2.153,0.367,2.871,1.098c0.717,0.733,1.076,1.714,1.076,2.942
		c0,0.992-0.242,1.765-0.722,2.315s-1.082,0.825-1.806,0.825c-0.711,0-1.28-0.236-1.714-0.709c-0.431-0.471-0.648-1.108-0.648-1.913
		c0-0.519,0.125-1.007,0.376-1.464c0.237-0.411,0.354-0.653,0.354-0.734c0-0.235-0.149-0.353-0.448-0.353
		c-0.644,0-1.378,0.378-2.196,1.133c-1.135,1.058-2.009,2.506-2.624,4.346c-0.945,2.868-1.416,5.16-1.416,6.877v4.747
		c0,0.537,0.187,0.945,0.567,1.229c0.377,0.282,1.024,0.424,1.936,0.424h2.813v1.771H82.928v-1.771h2.196
		c0.741,0,1.301-0.145,1.678-0.436c0.376-0.292,0.567-0.644,0.567-1.054V24.388c0-1.07-0.23-1.854-0.687-2.35
		c-0.456-0.495-1.109-0.743-1.959-0.743h-1.937V19.616z"/>
	<path clip-path="url(#SVGID_2_)" fill="#005DA4" d="M119.044,29.987c-4,0.553-6.834,1.449-8.505,2.693
		c-1.244,0.945-1.866,2.284-1.866,4.016c0,1.215,0.323,2.16,0.968,2.848c0.646,0.685,1.487,1.025,2.53,1.025
		c1.857,0,3.468-0.704,4.828-2.112c1.362-1.41,2.045-3.179,2.045-5.303V29.987z M126.791,39.317l0.852,1.323
		c-1.15,1.181-2.424,1.774-3.829,1.774c-1.07,0-1.97-0.293-2.704-0.876c-0.73-0.583-1.374-1.606-1.924-3.069
		c-1.495,1.574-2.813,2.625-3.946,3.153c-1.134,0.526-2.499,0.792-4.086,0.792c-2.267,0-3.994-0.491-5.175-1.465
		c-1.179-0.977-1.771-2.229-1.771-3.758c0-2.299,1.351-4.209,4.053-5.729c2.698-1.521,6.294-2.531,10.784-3.036v-3.353
		c0-1.198-0.48-2.222-1.44-3.072c-0.962-0.85-2.183-1.274-3.662-1.274c-1.371,0-2.55,0.283-3.545,0.847
		c-0.708,0.427-1.063,0.845-1.063,1.254c0,0.236,0.19,0.606,0.568,1.11c0.456,0.631,0.684,1.189,0.684,1.677
		c0,0.709-0.228,1.288-0.684,1.734c-0.456,0.452-1.056,0.676-1.795,0.676c-0.789,0-1.445-0.268-1.975-0.803
		c-0.528-0.537-0.787-1.22-0.787-2.057c0-1.558,0.875-2.984,2.633-4.275c1.753-1.293,4.056-1.938,6.909-1.938
		c2.629,0,4.637,0.569,6.021,1.703c1.389,1.149,2.081,2.543,2.081,4.18v12.096c0,1.07,0.173,1.858,0.52,2.362
		c0.347,0.519,0.796,0.78,1.349,0.78C125.469,40.076,126.112,39.823,126.791,39.317"/>
	<path clip-path="url(#SVGID_2_)" fill="#005DA4" d="M137.465,6.412V38.49c0,0.441,0.134,0.781,0.402,1.017
		c0.395,0.317,0.874,0.473,1.441,0.473h2.338v1.772h-12.544v-1.772h2.22c0.724,0,1.266-0.173,1.621-0.52
		c0.353-0.346,0.529-0.835,0.529-1.463V11.066c0-0.789-0.213-1.363-0.638-1.724c-0.583-0.506-1.301-0.757-2.148-0.757H128.7V6.813
		L137.465,6.412z"/>
	<path clip-path="url(#SVGID_2_)" fill="#005DA4" d="M151.49,6.412V38.49c0,0.441,0.136,0.781,0.402,1.017
		c0.395,0.317,0.873,0.473,1.441,0.473h2.341v1.772h-12.544v-1.772h2.218c0.725,0,1.264-0.173,1.62-0.52
		c0.353-0.346,0.531-0.835,0.531-1.463V11.066c0-0.789-0.215-1.363-0.639-1.724c-0.585-0.506-1.301-0.757-2.148-0.757h-1.985V6.813
		L151.49,6.412z"/>
	<path clip-path="url(#SVGID_2_)" fill="#005DA4" d="M219.043,5.804c-1.427,0-2.582-1.154-2.582-2.582
		c0-1.424,1.155-2.58,2.582-2.58s2.581,1.156,2.581,2.58C221.624,4.65,220.47,5.804,219.043,5.804 M219.043,0.3
		c-1.614,0-2.927,1.308-2.927,2.922c0,1.618,1.313,2.927,2.927,2.927s2.923-1.309,2.923-2.927
		C221.966,1.608,220.657,0.3,219.043,0.3"/>
	<path clip-path="url(#SVGID_2_)" fill="#005DA4" d="M219.819,3.654l0.636,0.202c-0.099,0.351-0.257,0.619-0.488,0.788
		c-0.225,0.173-0.511,0.26-0.861,0.26c-0.431,0-0.785-0.149-1.061-0.442c-0.278-0.295-0.417-0.697-0.417-1.21
		c0-0.54,0.139-0.96,0.418-1.258c0.282-0.299,0.646-0.449,1.102-0.449c0.398,0,0.72,0.118,0.967,0.353
		c0.147,0.139,0.259,0.339,0.331,0.6l-0.648,0.152c-0.038-0.166-0.119-0.303-0.237-0.398c-0.124-0.096-0.271-0.145-0.444-0.145
		c-0.242,0-0.438,0.085-0.587,0.26c-0.151,0.171-0.226,0.45-0.226,0.836c0,0.411,0.074,0.703,0.222,0.878
		c0.148,0.174,0.34,0.259,0.576,0.259c0.175,0,0.324-0.054,0.448-0.162C219.674,4.066,219.766,3.893,219.819,3.654"/>
	<path clip-path="url(#SVGID_2_)" fill="#005DA4" d="M200.778,8.56c-1.452,0-2.731,0.376-3.839,1.129
		c-1.108,0.754-1.963,1.866-2.559,3.334c-0.6,1.47-0.899,3.186-0.899,5.145c0,1.943,0.295,3.641,0.883,5.09
		c0.591,1.453,1.436,2.567,2.532,3.337c1.103,0.771,2.395,1.156,3.882,1.156c2.25,0,4.041-0.85,5.376-2.546
		c1.335-1.697,2-4.041,2-7.038c0-3.03-0.665-5.39-2-7.077C204.819,9.404,203.028,8.56,200.778,8.56"/>
	<path clip-path="url(#SVGID_2_)" fill="#005DA4" d="M215.573,19.214c-0.093,1.811-0.416,3.509-0.992,5.079
		c-0.69,1.869-1.688,3.477-2.995,4.821c-1.309,1.342-2.868,2.371-4.685,3.088c-1.813,0.717-3.854,1.076-6.123,1.076
		c-2.254,0-4.274-0.363-6.071-1.088c-1.799-0.729-3.354-1.766-4.667-3.119c-1.318-1.351-2.317-2.946-2.999-4.791
		c-0.679-1.843-1.019-3.88-1.019-6.112c0-2.249,0.345-4.311,1.034-6.179s1.677-3.467,2.967-4.791
		c1.289-1.327,2.849-2.348,4.684-3.063c1.832-0.716,3.856-1.076,6.071-1.076c1.269,0,2.465,0.13,3.6,0.36
		C200.78,1.262,196.589,0,192.09,0c-13.233,0-23.956,10.726-23.956,23.958s10.723,23.958,23.956,23.958
		c13.23,0,23.959-10.727,23.959-23.958C216.049,22.333,215.883,20.748,215.573,19.214"/>
</g>
</svg>
